<svg xmlns="http://www.w3.org/2000/svg" width="53.144" height="53.144" viewBox="0 0 53.144 53.144">
  <g id="Group_193" data-name="Group 193" transform="translate(-1217.601 -378.612)">
    <path id="Path_355" data-name="Path 355" d="M1227.692,383.443l-3.272-3.272a26.5,26.5,0,0,0-6.82,16.456h4.63A21.769,21.769,0,0,1,1227.692,383.443Z" transform="translate(0 7.191)" fill="#fe9100"/>
    <path id="Path_356" data-name="Path 356" d="M1235.615,383.242v-4.63a26.5,26.5,0,0,0-16.456,6.819l3.272,3.272A21.787,21.787,0,0,1,1235.615,383.242Z" transform="translate(7.192 0)" fill="#fe9100"/>
    <path id="Path_357" data-name="Path 357" d="M1239.035,385.431a26.5,26.5,0,0,0-16.456-6.819v4.63a21.759,21.759,0,0,1,13.184,5.461Z" transform="translate(22.961 0)" fill="#fe9100"/>
    <path id="Path_358" data-name="Path 358" d="M1222.231,383.59h-4.63a26.5,26.5,0,0,0,6.82,16.456l3.272-3.272A21.756,21.756,0,0,1,1222.231,383.59Z" transform="translate(0 22.961)" fill="#fe9100"/>
    <path id="Path_359" data-name="Path 359" d="M1225.271,396.773l3.272,3.272a26.5,26.5,0,0,0,6.819-16.456h-4.63A21.754,21.754,0,0,1,1225.271,396.773Z" transform="translate(35.382 22.961)" fill="#fe9100"/>
    <path id="Path_360" data-name="Path 360" d="M1230.732,396.627h4.63a26.5,26.5,0,0,0-6.819-16.456l-3.272,3.272A21.768,21.768,0,0,1,1230.732,396.627Z" transform="translate(35.382 7.191)" fill="#fe9100"/>
    <path id="Path_361" data-name="Path 361" d="M1219.159,389.555a26.494,26.494,0,0,0,16.456,6.819v-4.63a21.773,21.773,0,0,1-13.184-5.461Z" transform="translate(7.192 35.382)" fill="#fe9100"/>
    <path id="Path_362" data-name="Path 362" d="M1222.579,391.744v4.63a26.5,26.5,0,0,0,16.456-6.819l-3.272-3.272A21.76,21.76,0,0,1,1222.579,391.744Z" transform="translate(22.961 35.382)" fill="#fe9100"/>
    <path id="Path_363" data-name="Path 363" d="M1232.376,390.34a5.512,5.512,0,0,0-1.914-1.111,6.722,6.722,0,0,0-2.166-.365,6.126,6.126,0,0,0-1.145.1,5.917,5.917,0,0,0-1.022.275l.252-.314c.09-.1.179-.208.275-.309l6-7.167h-3.833a3.351,3.351,0,0,0-1.392.281,2.4,2.4,0,0,0-.915.7l-4.557,6.157a13.435,13.435,0,0,0-1.718,3.059,8.176,8.176,0,0,0-.584,3.014,8.46,8.46,0,0,0,.488,2.93,6.315,6.315,0,0,0,3.715,3.783,8.148,8.148,0,0,0,3.047.539,7.921,7.921,0,0,0,3.014-.556,7.145,7.145,0,0,0,2.324-1.51,6.61,6.61,0,0,0,1.493-2.223,6.917,6.917,0,0,0,.527-2.688,6.535,6.535,0,0,0-.517-2.7A5.553,5.553,0,0,0,1232.376,390.34Zm-2.654,6.2a3.268,3.268,0,0,1-.663,1.027,2.976,2.976,0,0,1-.993.69,3.138,3.138,0,0,1-1.24.247,3.5,3.5,0,0,1-1.348-.23,2.443,2.443,0,0,1-.948-.657,2.667,2.667,0,0,1-.556-1.027,4.762,4.762,0,0,1-.18-1.353,3.758,3.758,0,0,1,.225-1.347,3.045,3.045,0,0,1,.617-1.027,2.625,2.625,0,0,1,.937-.657,2.951,2.951,0,0,1,1.2-.23,3.771,3.771,0,0,1,1.313.219,2.727,2.727,0,0,1,1.65,1.672,3.818,3.818,0,0,1,.231,1.386A3.456,3.456,0,0,1,1229.722,396.542Z" transform="translate(9.488 13.09)" fill="#fe9100"/>
    <path id="Path_364" data-name="Path 364" d="M1226.831,401.469a7.4,7.4,0,0,0,5.972,0,6.27,6.27,0,0,0,2.391-1.9,9.443,9.443,0,0,0,1.578-3.221,18.765,18.765,0,0,0,0-9.2,9.445,9.445,0,0,0-1.578-3.222,6.254,6.254,0,0,0-2.391-1.9,7.528,7.528,0,0,0-5.972,0,6.32,6.32,0,0,0-2.368,1.9,9.311,9.311,0,0,0-1.56,3.222,19.109,19.109,0,0,0,0,9.2,9.308,9.308,0,0,0,1.56,3.221A6.336,6.336,0,0,0,1226.831,401.469Zm.213-13.161a7.075,7.075,0,0,1,.679-2.1,2.472,2.472,0,0,1,.971-1.05,2.379,2.379,0,0,1,1.117-.286,2.439,2.439,0,0,1,1.128.286,2.55,2.55,0,0,1,.994,1.05,7.033,7.033,0,0,1,.7,2.1,22.082,22.082,0,0,1,0,6.881,7.033,7.033,0,0,1-.7,2.1,2.551,2.551,0,0,1-.994,1.061,2.5,2.5,0,0,1-1.128.281,2.44,2.44,0,0,1-1.117-.281,2.474,2.474,0,0,1-.971-1.061,7.075,7.075,0,0,1-.679-2.1,23.095,23.095,0,0,1,0-6.881Z" transform="translate(21.863 12.906)" fill="#fe9100"/>
  </g>
</svg>
