<svg id="Layer_1" data-name="Layer 1" xmlns="http://www.w3.org/2000/svg" xmlns:xlink="http://www.w3.org/1999/xlink" viewBox="0 0 412.58 244.4"><defs><style>.cls-1{fill:#f7941d;}.cls-2,.cls-7{fill:#21409a;}.cls-2{stroke:#21409a;stroke-width:0.78px;}.cls-10,.cls-11,.cls-12,.cls-2,.cls-3,.cls-7,.cls-8{stroke-miterlimit:10;}.cls-10,.cls-11,.cls-12,.cls-3{fill:none;}.cls-10,.cls-12,.cls-3,.cls-8{stroke:#d1d3d4;}.cls-3{stroke-width:2.35px;}.cls-4{fill-rule:evenodd;fill:url(#linear-gradient);}.cls-5{fill:url(#linear-gradient-2);}.cls-6{fill:url(#linear-gradient-3);}.cls-7{stroke:#a7a9ac;stroke-width:0.72px;}.cls-8{fill:#d1d3d4;stroke-width:7.05px;}.cls-9{fill:#1b75bc;}.cls-10,.cls-11,.cls-12{stroke-linecap:round;}.cls-10,.cls-11{stroke-width:3.24px;}.cls-11{stroke:#bcbec0;}.cls-12{stroke-width:1.22px;}.cls-13{fill:#00aeef;}</style><linearGradient id="linear-gradient" x1="96.97" y1="203.33" x2="321.54" y2="203.33" gradientUnits="userSpaceOnUse"><stop offset="0" stop-color="#898989"/><stop offset="0.22" stop-color="#555554"/><stop offset="0.78" stop-color="#6b6b6b"/><stop offset="1" stop-color="#e9e8e9"/></linearGradient><linearGradient id="linear-gradient-2" x1="113.01" y1="197.71" x2="305.5" y2="197.71" gradientUnits="userSpaceOnUse"><stop offset="0" stop-color="#474747"/><stop offset="0.17" stop-color="#606060"/><stop offset="0.83" stop-color="#7d7c7c"/><stop offset="1" stop-color="#636363"/></linearGradient><linearGradient id="linear-gradient-3" x1="113.01" y1="190.89" x2="305.5" y2="190.89" gradientUnits="userSpaceOnUse"><stop offset="0" stop-color="#898989"/><stop offset="0.3" stop-color="#939393"/><stop offset="0.53" stop-color="#f9f9f8"/><stop offset="0.58" stop-color="#f9f9f8"/><stop offset="0.73" stop-color="#e6e6e5"/><stop offset="0.88" stop-color="#e9e8e9"/><stop offset="1" stop-color="#bbb"/></linearGradient></defs><title>cool-pro-mechanical-logo</title><path class="cls-1" d="M346.62,91.28a26.27,26.27,0,0,1-3.85,4.57c4.33-7.95,10.57-14.63,8.37-24.57a12.08,12.08,0,0,0-7.24-8.39C332,57.55,318.9,66,313,76.34c-2.26,3.93-4.38,9.84-2.2,14.23,2.62,5.24,10.05,7.82,15.36,5.19,6.55-3.27,13.09-11.5,8.14-18.79-1.22-1.8-5.95-5.15-6.91-1.3,4.16,1-.22,5.1-2.19,2.42-1.37-1.87,1.19-4.63,2.95-5a8.05,8.05,0,0,1,7.45,2.66c2.82,3.94,1.27,9.92-1,13.7-4.39,7.19-14,12.75-21.28,8.33-6.85-4.18-4.84-15.35,0-23.24,6.78-11.1,20-21,31.24-14.17C355.52,67.11,353.12,81.7,346.62,91.28Z" transform="translate(-1.89 -1.46)"/><path class="cls-1" d="M310.68,146.91c1.21-4.07,8.77-23.2,10.46-27.09,2-4.54,4.25-9,6.66-13.3,4.63-8.31,9.3-16.34,13.29-25,1.81-3.91,5.24-9.66,5.52-14.8,0,6.2-3.16,14.21-4.67,18.3a166.26,166.26,0,0,1-11.44,23.61c-7.77,13.82-23.18,46.58-22.22,63,.38,6.45,2.24,14.46,7.19,19a12.09,12.09,0,0,0,10.74,2.77c12.83-2.41,18.73-16.84,17.74-28.69-.37-4.52-2-10.59-6.3-12.94-5.14-2.82-12.72-.71-15.57,4.49-3.53,6.41-4.2,16.91,4,20.08,2,.78,7.82.84,6.41-2.87-3.95,1.59-2.72-4.33.42-3.24,2.2.75,1.67,4.48.43,5.79-1.7,1.83-5.23,2.92-7.63,2.06-4.57-1.63-6.7-7.42-7-11.84-.49-8.4,4.25-18.47,12.73-19,8-.47,12.73,9.85,13.27,19.07.76,13-4.46,28.69-17.58,29.46-12.78.75-19-12.32-19.71-24.16a65.91,65.91,0,0,1,.67-13.68A80.53,80.53,0,0,1,310.68,146.91Z" transform="translate(-1.89 -1.46)"/><path class="cls-1" d="M74.46,91a26.34,26.34,0,0,0,3.85,4.58C74,87.6,67.74,80.92,70,71a12.06,12.06,0,0,1,7.23-8.4c11.92-5.34,25,3.15,30.94,13.45,2.27,3.93,4.39,9.85,2.2,14.23-2.62,5.25-10,7.83-15.35,5.19C88.41,92.2,81.88,84,86.82,76.67c1.22-1.8,6-5.15,6.91-1.3-4.16.95.23,5.1,2.19,2.42,1.37-1.87-1.18-4.62-3-5a8.06,8.06,0,0,0-7.45,2.67c-2.82,3.94-1.27,9.91,1,13.69,4.39,7.19,14,12.75,21.27,8.33,6.85-4.18,4.84-15.35,0-23.24-6.78-11.1-20-21-31.23-14.17S68,81.4,74.46,91Z" transform="translate(-1.89 -1.46)"/><path class="cls-1" d="M110.41,146.62c-1.22-4.08-8.77-23.21-10.47-27.1-2-4.54-4.25-9-6.66-13.3C88.66,97.91,84,89.89,80,81.26c-1.81-3.91-5.23-9.67-5.51-14.81,0,6.2,3.15,14.21,4.66,18.3a166.31,166.31,0,0,0,11.45,23.61c7.76,13.82,23.17,46.58,22.21,63-.38,6.45-2.24,14.47-7.19,19a12.09,12.09,0,0,1-10.74,2.77c-12.83-2.4-18.73-16.84-17.74-28.69.38-4.51,2-10.58,6.3-12.94,5.15-2.82,12.72-.7,15.58,4.49,3.52,6.42,4.19,16.91-4,20.08-2,.78-7.82.84-6.41-2.87,4,1.59,2.72-4.32-.42-3.24-2.2.76-1.66,4.48-.43,5.8a8,8,0,0,0,7.63,2c4.57-1.62,6.7-7.41,7-11.83.5-8.41-4.25-18.47-12.73-19-8-.47-12.73,9.86-13.27,19.07-.76,13,4.46,28.69,17.58,29.46,12.79.75,19-12.32,19.72-24.16a65.27,65.27,0,0,0-.68-13.68A81.5,81.5,0,0,0,110.41,146.62Z" transform="translate(-1.89 -1.46)"/><polygon class="cls-1" points="204.94 237.57 204.94 244.4 209.89 244.4 210.09 237.57 204.94 237.57"/><polygon class="cls-1" points="191.28 228.91 174.46 235.84 185.74 240.79 197.02 232.68 191.28 228.91"/><polygon class="cls-1" points="218.6 232.68 222.95 229.11 239.78 235.84 228.89 240.79 218.6 232.68"/><polygon class="cls-1" points="198.8 234.06 189.5 241.98 199.99 243.38 203.35 237.03 198.8 234.06"/><polygon class="cls-1" points="211.67 237.03 214.44 243.98 224.73 241.98 216.81 233.86 211.67 237.03"/><path class="cls-2" d="M115.5,82.67l21.77-43.11h148.9l21,42.68S273.9,87.81,279.94,100c9.41,19,22.76,7,22.76,7s-14,62-31.36,81.52c-17,19.2-63.37,55.56-61.82,53.33,0,0-49.51-34.33-59-48.89-35.1-53.89-34.81-85.56-34.81-85.56s28.81,10.59,29-7.41C144.82,91.54,132.6,86.43,115.5,82.67Z" transform="translate(-1.89 -1.46)"/><polygon class="cls-1" points="194.24 17.6 190.87 13.84 176.82 28.09 185.73 37.4 193.64 29.08 188.7 23.54 194.24 17.6"/><rect class="cls-1" x="200.28" y="5.01" width="16.43" height="15.44" transform="translate(50.18 149.7) rotate(-45)"/><polygon class="cls-1" points="218.39 18 221.75 14.24 235.81 28.49 226.9 37.79 218.98 29.48 223.93 23.94 218.39 18"/><polygon class="cls-1" points="193.64 25.52 197.8 21.16 206.31 29.08 215.02 20.57 219.18 24.73 206.91 37.79 193.64 25.52"/><path class="cls-3" d="M128.43,76.81,141.8,49.49h138L294.21,78s-28.72,11.21-25.15,22.21c7.16,22.08,22.95,21.69,22.95,21.69s-17.21,49.9-30.26,64.67C247.3,202.94,207.88,231,209.2,229.14c0,0-42.87-31.53-50.93-43.91C128.44,139.42,122,114.69,122,114.69s32.11,9.38,32.11-14.46C154.12,93,143,80,128.43,76.81Z" transform="translate(-1.89 -1.46)"/><g id="_Ë_Û__5__x28_ÍÓÔË__x29__3" data-name="‘Ë„Û‡_5__x28_ÍÓÔËˇ_x29__3"><path class="cls-4" d="M97,190.89l12,12L97.1,222.75c1.23-.54,11.63-4.66,48-6.75V183.92c-39,2.24-48.12,6.81-48.12,6.81Zm224.57-.16s-9.16-4.57-48.12-6.81V216c36.37,2.09,46.77,6.21,48,6.75l-11.9-19.83,12-12Z" transform="translate(-1.89 -1.46)"/></g><g id="_Ë_Û__5__x28_ÍÓÔË__x29__4" data-name="‘Ë„Û‡_5__x28_ÍÓÔËˇ_x29__4"><path class="cls-5" d="M113,210.94s6.55,3.26,32.08,5.62V184.48c-25.53-2.36-32.08-5.62-32.08-5.62Zm160.41-26.46v32.08c25.52-2.36,32.08-5.62,32.08-5.62V178.86S298.94,182.12,273.42,184.48Z" transform="translate(-1.89 -1.46)"/></g><g id="_Ë_Û__5__x28_ÍÓÔË__x29__5" data-name="‘Ë„Û‡_5__x28_ÍÓÔËˇ_x29__5"><path class="cls-6" d="M209.25,170.83c-80.2,0-96.24,8-96.24,8v32.08s16-8,96.24-8,96.25,8,96.25,8V178.86S289.46,170.83,209.25,170.83Z" transform="translate(-1.89 -1.46)"/></g><path class="cls-7" d="M126.12,187.6c-.06-.6-.1-1.2-.22-2.06-.09-.67-.27-.73-1.18-.71l0-.4c.71,0,1.57-.09,2.42-.21s1.68-.3,2.52-.48l5.45,8.94,2.36-10c.84-.05,1.64-.1,2.47-.21s1.64-.3,2.43-.47l.05.4c-.81.18-.89.43-.81,1s.31,1.55.48,2.27l2,9c.12.55.82.54,1.3.54l0,.41c-1,.07-2.06.15-3.07.29s-2,.35-3,.55l0-.4c1.13-.29,1.41-.53,1.27-1.51-.07-.52-.27-1.47-.44-2.17l-1.43-6.3h0l-2.5,10.82-2,.27-6-9.77h0l.69,6.3c.13,1.12.16,1.7.24,2.28.15,1.07.3,1.29,1.74,1.24l.05.41c-1,.06-1.83.12-2.72.25s-1.73.3-2.45.47l-.06-.41c.91-.19,1.26-.44,1.18-1.34Z" transform="translate(-1.89 -1.46)"/><path class="cls-7" d="M149.26,182.71c-.06-.6-.37-.85-1.18-.8l0-.41,11.85-1.12c.13,1.18.29,2.32.51,3.47l-.44,0c-.35-1.16-.72-1.54-2-1.42l-5.16.49.35,3.72,3.24-.31c1.07-.1,1.2-.44,1.27-1.22l.45,0a20.32,20.32,0,0,0,0,2,20,20,0,0,0,.34,2l-.45,0c-.22-.76-.41-1.07-1.48-1l-3.24.3.4,4.24,5.42-.51c1.28-.12,1.64-.55,1.87-2.39l.59-.06a38.16,38.16,0,0,0,.11,4.11l-12.4,1.17,0-.4c.8-.1,1.06-.41,1-1Z" transform="translate(-1.89 -1.46)"/><path class="cls-7" d="M178.68,191.88a9.5,9.5,0,0,1-4.86,1.74c-5.12.32-8.24-3.08-8.47-6.74s2.43-7.56,8-7.91a13.08,13.08,0,0,1,4,.29c.09,1.47.2,2.87.41,4.26l-.45,0c-.5-1.76-2.1-2.62-4.09-2.49-2.7.17-4.67,2.22-4.47,5.45a5.47,5.47,0,0,0,5.69,4.86,8.23,8.23,0,0,0,4.41-1.81Z" transform="translate(-1.89 -1.46)"/><path class="cls-7" d="M183.49,180.1c0-.61-.31-.88-1.12-.88l0-.4c1.05,0,2,.07,2.86,0s1.8-.12,2.84-.22l0,.41c-.81,0-1.09.33-1.07.94l.14,4.27,5.74-.18-.13-4.27c0-.61-.31-.88-1.12-.87l0-.41c1,0,2,.07,2.86,0s1.8-.12,2.84-.22l0,.41c-.81,0-1.09.33-1.07.94l.36,11.31c0,.61.31.88,1.12.87v.41c-1,0-2-.06-2.85,0s-1.8.13-2.84.22l0-.41c.81,0,1.09-.33,1.07-.94l-.16-5-5.75.17.16,5c0,.61.31.88,1.12.87v.41c-1,0-2-.06-2.85,0s-1.8.12-2.84.22l0-.41c.81,0,1.09-.33,1.07-.94Z" transform="translate(-1.89 -1.46)"/><path class="cls-7" d="M200.59,191.83a1.4,1.4,0,0,0,1.23-1l4.64-10.75a2.81,2.81,0,0,0,.3-.85c0-.21-.26-.56-.9-.56v-.41c.76.06,1.5.13,2.23.13s1.5-.07,2.23-.14l4.4,12.14c.36.95.72,1.23,1.43,1.4v.41c-1-.07-2-.13-3-.13s-2,.07-3.06.14v-.41c.88-.15,1.18-.33,1.18-.82a3.32,3.32,0,0,0-.24-1.08l-.76-2.1h-4.63l-1,2.55a2.21,2.21,0,0,0-.19.76c0,.39.33.65,1.11.69v.41c-.81-.06-1.64-.12-2.45-.12s-1.64.07-2.47.13Zm9.09-5.66a36.56,36.56,0,0,1-1.39-5h0c-.54,1.73-1.3,3.43-1.91,5Z" transform="translate(-1.89 -1.46)"/><path class="cls-7" d="M220.53,179.65c0-.61-.26-.9-1.07-.94l0-.41c1,.09,2,.18,2.84.21a12.68,12.68,0,0,0,2.1-.08l6.3,9.42h.05l.21-7.62c0-1.13-.75-1.23-1.39-1.25v-.41c.79.08,1.55.17,2.28.19s1.57,0,2.33-.07v.41c-.8,0-1.1.27-1.11.88l-.34,12.63-2.52-.07-7.6-11.09h0l-.25,9.26c0,1.13.75,1.23,1.39,1.25v.41c-.78-.09-1.54-.17-2.28-.19s-1.57,0-2.33.07v-.41c.81,0,1.1-.28,1.12-.88Z" transform="translate(-1.89 -1.46)"/><path class="cls-7" d="M240.16,180.31c0-.6-.24-.9-1-1l0-.41c1,.12,2,.23,2.84.28s1.8,0,2.85,0l0,.41c-.81,0-1.11.25-1.14.85l-.58,11.31c0,.6.24.9,1,1l0,.41c-1-.12-2-.23-2.84-.28s-1.81,0-2.85,0l0-.41c.81,0,1.11-.24,1.14-.85Z" transform="translate(-1.89 -1.46)"/><path class="cls-7" d="M261.37,193.29a9.59,9.59,0,0,1-5.06,1.05c-5.12-.39-7.74-4.18-7.46-7.84s3.45-7.15,9-6.73a13,13,0,0,1,3.89.83c-.11,1.47-.19,2.87-.18,4.28l-.45,0c-.24-1.82-1.71-2.89-3.7-3-2.7-.2-4.93,1.56-5.18,4.79a5.48,5.48,0,0,0,5,5.6A8.28,8.28,0,0,0,261.8,191Z" transform="translate(-1.89 -1.46)"/><path class="cls-7" d="M263.72,194.16a1.39,1.39,0,0,0,1.33-.85l5.79-10.17a2.68,2.68,0,0,0,.4-.8c0-.22-.2-.59-.84-.66l.05-.41c.75.15,1.47.29,2.2.37s1.5.1,2.24.12l3,12.53c.25,1,.58,1.3,1.27,1.55l-.05.41c-1-.17-2-.35-3-.45s-2-.16-3.06-.21l0-.4c.89-.06,1.22-.2,1.27-.69a3.41,3.41,0,0,0-.12-1.1l-.53-2.16-4.6-.51-1.32,2.42a2.13,2.13,0,0,0-.27.73c0,.39.26.68,1,.81l-.05.41c-.8-.15-1.61-.31-2.42-.39s-1.63-.12-2.47-.14Zm9.65-4.62a39.51,39.51,0,0,1-.83-5.08h-.05c-.73,1.66-1.67,3.27-2.45,4.73Z" transform="translate(-1.89 -1.46)"/><path class="cls-7" d="M284.84,184.3c.09-.6-.15-.92-.95-1.06l.06-.41c1,.22,1.93.41,2.8.54s2.44.29,3.13.33l-.06.41c-1.21-.14-1.45.38-1.54,1l-1.5,10.22,4.45.65c1.55.23,2.28-.32,2.92-1.89l.56.09a21.83,21.83,0,0,0-1.17,4.06L282,196.51l.06-.4c.8.09,1.12-.14,1.21-.74Z" transform="translate(-1.89 -1.46)"/><path class="cls-8" d="M44.74,150.86a23.56,23.56,0,0,1-13.28,4.36c-15.67,0-26-9.07-26-25C5.41,114.51,17.46,106,32.26,106A25.29,25.29,0,0,1,43,108.35c.07,4.93.51,9.94.87,14.87H41.11c-1.16-4.79-4.06-9.07-9.58-9.07-7.32,0-10.3,6.75-10.3,13,0,8.13,3.77,18.07,13.21,18.07,3.77,0,7.54-1.53,10.81-3.34Z" transform="translate(-1.89 -1.46)"/><path class="cls-8" d="M79.42,106C93.86,106,105,116.76,105,131.2c0,14.22-12.55,24-26.11,24-13.94,0-25.54-10.6-25.54-24.74S65.86,106,79.42,106ZM81,147c6.6,0,7.4-7,7.4-12,0-6.31-2.32-20.6-11-20.6-6,0-7.33,6.38-7.33,11C70.06,131.64,72.24,147,81,147Z" transform="translate(-1.89 -1.46)"/><path class="cls-8" d="M139.5,106c14.44,0,25.61,10.73,25.61,25.17,0,14.22-12.55,24-26.12,24-13.93,0-25.54-10.6-25.54-24.74S125.93,106,139.5,106ZM141,147c6.6,0,7.4-7,7.4-12,0-6.31-2.33-20.6-11-20.6-5.95,0-7.33,6.38-7.33,11C130.14,131.64,132.32,147,141,147Z" transform="translate(-1.89 -1.46)"/><path class="cls-8" d="M177.38,113c0-2.76-2-3-3.56-3v-2.75c3.34.21,7,.43,10.67.43,4.5,0,8.92-.22,13.42-.43v2.75c-2.83,0-4.71.29-4.71,3.49v31.92h11.31c6.68,0,7.26-6,7.62-7.76h2.76a98.46,98.46,0,0,0-1.67,16h-39.4v-2.76c1.6,0,3.56-.29,3.56-3Z" transform="translate(-1.89 -1.46)"/><path class="cls-8" d="M251.1,113.43c0-2.76-2-3.05-3.56-3.05v-2.76h22.78c13.28,0,24.53,4.5,24.53,16.54,0,8.93-6.89,14.59-15.67,14.59-4.79,0-10.74-1.45-10.74-3.48,0-1.24,1.09-1.31,4-1.31,3.85-.15,6.6-2.61,6.6-8.05,0-4.65-2-10.45-10.74-10.45h-1.38v32.72c0,3,3,3.12,4.29,3.12v2.76c-3.63-.22-7.7-.44-12.12-.44-3.92,0-8.34.22-11.54.44V151.3c1.6,0,3.56-.29,3.56-3.05Z" transform="translate(-1.89 -1.46)"/><path class="cls-8" d="M303.56,151.3c1.59,0,3.55-.29,3.55-3.05V113.43c0-2.76-2-3.05-3.55-3.05v-2.76H335c8.2,0,14.88,3.77,14.88,12,0,6.24-4.5,11-10.67,12.12,3.12,5.44,6.24,10.81,9.29,16.25.94,1.67,2,3.34,4.35,3.34v2.76c-3-.22-5.87-.44-8.85-.44s-6,.22-9,.44c-2.9-6.32-5.66-12.7-9.14-18.65-1-1.74-1.89-2.76-1.89-4,0-1.45,3.05-1.16,5.59-1.74,3.34-.8,5.37-3.27,5.37-7.26,0-5.22-3.34-7.4-9.87-7.4h-2.1v33.6c.14,2.1,1.89,2.68,4.14,2.68v2.76c-4.14-.22-8.28-.44-12.41-.44-3.63,0-7.26.22-11.1.44Z" transform="translate(-1.89 -1.46)"/><path class="cls-8" d="M385.33,106c14.44,0,25.61,10.73,25.61,25.17,0,14.22-12.55,24-26.12,24-13.93,0-25.54-10.6-25.54-24.74S371.76,106,385.33,106ZM386.85,147c6.61,0,7.4-7,7.4-12,0-6.31-2.32-20.6-10.95-20.6-5.95,0-7.33,6.38-7.33,11C376,131.64,378.15,147,386.85,147Z" transform="translate(-1.89 -1.46)"/><path class="cls-9" d="M45.24,151.06A23.61,23.61,0,0,1,32,155.41c-15.67,0-26-9.07-26-25,0-15.67,12-24.16,26.84-24.16a25.29,25.29,0,0,1,10.74,2.32c.07,4.93.51,9.94.87,14.87H41.61c-1.16-4.78-4.06-9.06-9.57-9.06-7.33,0-10.31,6.74-10.31,13,0,8.13,3.78,18.07,13.21,18.07,3.77,0,7.54-1.53,10.81-3.34Z" transform="translate(-1.89 -1.46)"/><path class="cls-9" d="M79.92,106.22c14.44,0,25.62,10.74,25.62,25.18,0,14.22-12.55,24-26.12,24-13.93,0-25.54-10.59-25.54-24.74S66.36,106.22,79.92,106.22Zm1.53,40.92c6.6,0,7.4-7,7.4-12,0-6.32-2.32-20.61-11-20.61-6,0-7.32,6.39-7.32,11C70.57,131.83,72.74,147.14,81.45,147.14Z" transform="translate(-1.89 -1.46)"/><path class="cls-9" d="M140,106.22c14.44,0,25.62,10.74,25.62,25.18,0,14.22-12.56,24-26.12,24-13.93,0-25.54-10.59-25.54-24.74S126.44,106.22,140,106.22Zm1.53,40.92c6.6,0,7.4-7,7.4-12,0-6.32-2.32-20.61-11-20.61-5.95,0-7.33,6.39-7.33,11C130.64,131.83,132.82,147.14,141.53,147.14Z" transform="translate(-1.89 -1.46)"/><path class="cls-9" d="M177.88,113.18c0-2.75-2-3-3.55-3v-2.76c3.33.22,7,.44,10.66.44,4.5,0,8.93-.22,13.42-.44v2.76c-2.83,0-4.71.29-4.71,3.48v31.92H205c6.67,0,7.25-6,7.61-7.76h2.76a98.58,98.58,0,0,0-1.67,16H174.33v-2.76c1.59,0,3.55-.29,3.55-3.05Z" transform="translate(-1.89 -1.46)"/><path class="cls-9" d="M251.6,113.62c0-2.76-2-3.05-3.56-3.05v-2.75h22.79c13.28,0,24.52,4.49,24.52,16.54,0,8.92-6.89,14.58-15.67,14.58-4.79,0-10.74-1.45-10.74-3.48,0-1.23,1.09-1.31,4-1.31,3.85-.14,6.6-2.61,6.6-8.05,0-4.64-2-10.45-10.73-10.45h-1.38v32.72c0,3,3,3.12,4.28,3.12v2.76c-3.63-.22-7.69-.43-12.12-.43-3.92,0-8.34.21-11.54.43v-2.76c1.6,0,3.56-.29,3.56-3Z" transform="translate(-1.89 -1.46)"/><path class="cls-9" d="M304.06,151.49c1.6,0,3.55-.29,3.55-3V113.62c0-2.76-1.95-3.05-3.55-3.05v-2.75h31.42c8.19,0,14.87,3.77,14.87,12,0,6.24-4.5,11-10.67,12.11,3.12,5.45,6.24,10.81,9.29,16.26.94,1.66,2,3.33,4.35,3.33v2.76c-3-.22-5.87-.43-8.85-.43s-6,.21-9,.43c-2.91-6.31-5.66-12.7-9.15-18.65-1-1.74-1.88-2.75-1.88-4,0-1.45,3-1.16,5.58-1.74,3.34-.8,5.37-3.26,5.37-7.25,0-5.23-3.33-7.4-9.86-7.4h-2.11v33.59c.15,2.1,1.89,2.68,4.14,2.68v2.76c-4.14-.22-8.27-.43-12.41-.43-3.63,0-7.26.21-11.1.43Z" transform="translate(-1.89 -1.46)"/><path class="cls-9" d="M385.83,106.22c14.44,0,25.61,10.74,25.61,25.18,0,14.22-12.55,24-26.12,24-13.93,0-25.54-10.59-25.54-24.74S372.26,106.22,385.83,106.22Zm1.53,40.92c6.6,0,7.4-7,7.4-12,0-6.32-2.33-20.61-11-20.61-5.95,0-7.33,6.39-7.33,11C376.47,131.83,378.65,147.14,387.36,147.14Z" transform="translate(-1.89 -1.46)"/><path class="cls-1" d="M204.83,80a3.61,3.61,0,0,1-.05-2.28,3.9,3.9,0,0,0-.62,1.36.85.85,0,0,1-1,.81c-1.41-.6.1-3,.27-4.76s-1.14-4-2.11-5.2a3.34,3.34,0,0,1-.81-3.14c-1.36,2.76-.38,4.06-.22,5.74s-1.14,2.76-1.73,3.41a18.27,18.27,0,0,0-2.6,3.52,4.41,4.41,0,0,0,1,4.57,4.6,4.6,0,0,0,3.27,1.5c-.39-.32-.51-5.09.22-4.78s1.84,3.92,1,4.71a5.19,5.19,0,0,0,2.29-1A3.93,3.93,0,0,0,204.83,80Z" transform="translate(-1.89 -1.46)"/><path class="cls-1" d="M201,71.39a9,9,0,0,1,1.46,4.14c0,1.13-.55,2.63-.27,3.76.19.75,1.38,1.59,2.11.48a5.59,5.59,0,0,1-.09,3.2,5.16,5.16,0,0,1-1.54,2.16,4.47,4.47,0,0,0,1.14-.68A3.93,3.93,0,0,0,204.83,80a3.61,3.61,0,0,1-.05-2.28,3.9,3.9,0,0,0-.62,1.36.85.85,0,0,1-1,.81c-1.41-.6.1-3,.27-4.76s-1.14-4-2.11-5.2a3.34,3.34,0,0,1-.81-3.14c-1.36,2.76-.38,4.06-.22,5.74s-1.14,2.76-1.73,3.41a18.27,18.27,0,0,0-2.6,3.52,4.41,4.41,0,0,0,1,4.57,4.67,4.67,0,0,0,2.19,1.34,4.72,4.72,0,0,1-2.06-2.34,5.21,5.21,0,0,1,1.25-5.6c1.31-1.4,2-2.09,2.38-3.09" transform="translate(-1.89 -1.46)"/><line class="cls-10" x1="223.4" y1="90.74" x2="223.4" y2="63.63"/><line class="cls-11" x1="189.97" y1="90.31" x2="222.59" y2="90.36"/><line class="cls-10" x1="189.33" y1="90.79" x2="189.33" y2="63.68"/><line class="cls-10" x1="207.03" y1="55.39" x2="231.6" y2="66.85"/><line class="cls-10" x1="182.29" y1="66.85" x2="206.86" y2="55.4"/><line class="cls-12" x1="206.76" y1="89.35" x2="206.71" y2="57.04"/><path class="cls-13" d="M211.08,74.5a11.29,11.29,0,0,0,8.2.62c4.9-1.44,8.36-2.83,10.5-2.48s5.05,2.48,5.05,2.48a15.6,15.6,0,0,0-5.21-.93c-2.87,0-8.2,2-10.38,2.18S212,75.75,211.08,74.5Z" transform="translate(-1.89 -1.46)"/><path class="cls-13" d="M211.39,77.05a11.35,11.35,0,0,0,8.2.62c4.9-1.44,8.36-2.84,10.5-2.49s5,2.49,5,2.49a15.6,15.6,0,0,0-5.21-.93c-2.87,0-8.2,2-10.38,2.17S212.32,78.29,211.39,77.05Z" transform="translate(-1.89 -1.46)"/><path class="cls-13" d="M211.47,79.93a11.37,11.37,0,0,0,8.2.62c4.9-1.44,8.36-2.84,10.5-2.49s5.06,2.49,5.06,2.49a15.67,15.67,0,0,0-5.21-.93c-2.88,0-8.21,2-10.38,2.17S212.4,81.17,211.47,79.93Z" transform="translate(-1.89 -1.46)"/></svg>