<svg xmlns="http://www.w3.org/2000/svg" width="82.99" height="87.424" viewBox="0 0 82.99 87.424">
  <g id="Group_13" data-name="Group 13" transform="translate(2.732 2)">
    <line id="Line_7" data-name="Line 7" y1="18.96" transform="translate(21.482 5.688)" fill="none" stroke="#fff" stroke-linecap="round" stroke-linejoin="round" stroke-width="4"/>
    <path id="Path_16" data-name="Path 16" d="M380,295l5.688,5.688L391.376,295" transform="translate(-364.206 -285.52)" fill="none" stroke="#fff" stroke-linecap="round" stroke-linejoin="round" stroke-width="4"/>
    <line id="Line_8" data-name="Line 8" x1="16.42" y1="9.48" transform="translate(0 18.012)" fill="none" stroke="#fff" stroke-linecap="round" stroke-linejoin="round" stroke-width="4"/>
    <path id="Path_17" data-name="Path 17" d="M371.9,307.754l7.77-2.082-2.082-7.77" transform="translate(-371.462 -282.92)" fill="none" stroke="#fff" stroke-linecap="round" stroke-linejoin="round" stroke-width="4"/>
    <line id="Line_9" data-name="Line 9" y1="9.48" x2="16.42" transform="translate(25.9 18.012)" fill="none" stroke="#fff" stroke-linecap="round" stroke-linejoin="round" stroke-width="4"/>
    <path id="Path_18" data-name="Path 18" d="M397.43,307.754l-7.77-2.082,2.082-7.77" transform="translate(-355.55 -282.92)" fill="none" stroke="#fff" stroke-linecap="round" stroke-linejoin="round" stroke-width="4"/>
    <line id="Line_10" data-name="Line 10" y2="18.96" transform="translate(21.482 36.024)" fill="none" stroke="#fff" stroke-linecap="round" stroke-linejoin="round" stroke-width="4"/>
    <path id="Path_19" data-name="Path 19" d="M380,319.188l5.688-5.688,5.688,5.688" transform="translate(-364.206 -268.944)" fill="none" stroke="#fff" stroke-linecap="round" stroke-linejoin="round" stroke-width="4"/>
    <line id="Line_11" data-name="Line 11" x1="16.42" y2="9.48" transform="translate(0 32.232)" fill="none" stroke="#fff" stroke-linecap="round" stroke-linejoin="round" stroke-width="4"/>
    <path id="Path_20" data-name="Path 20" d="M371.9,308.4l7.77,2.082-2.082,7.77" transform="translate(-371.462 -273.512)" fill="none" stroke="#fff" stroke-linecap="round" stroke-linejoin="round" stroke-width="4"/>
    <line id="Line_12" data-name="Line 12" x2="16.42" y2="9.48" transform="translate(25.9 32.232)" fill="none" stroke="#fff" stroke-linecap="round" stroke-linejoin="round" stroke-width="4"/>
    <path id="Path_21" data-name="Path 21" d="M397.43,308.4l-7.77,2.082,2.082,7.77" transform="translate(-355.55 -273.512)" fill="none" stroke="#fff" stroke-linecap="round" stroke-linejoin="round" stroke-width="4"/>
    <line id="Line_13" data-name="Line 13" x2="7.584" transform="translate(72.674 11.376)" fill="none" stroke="#fff" stroke-miterlimit="10" stroke-width="4"/>
    <line id="Line_14" data-name="Line 14" x2="7.584" transform="translate(72.674 22.752)" fill="none" stroke="#fff" stroke-miterlimit="10" stroke-width="4"/>
    <line id="Line_15" data-name="Line 15" x2="7.584" transform="translate(72.674 34.128)" fill="none" stroke="#fff" stroke-miterlimit="10" stroke-width="4"/>
    <line id="Line_16" data-name="Line 16" x2="7.584" transform="translate(72.674 45.504)" fill="none" stroke="#fff" stroke-miterlimit="10" stroke-width="4"/>
    <path id="Path_22" data-name="Path 22" d="M415.064,352.206V295.688a5.688,5.688,0,1,0-11.376,0v56.518a11.376,11.376,0,1,0,11.376,0Z" transform="translate(-348.078 -290)" fill="none" stroke="#fff" stroke-miterlimit="10" stroke-width="4"/>
  </g>
</svg>
