<svg xmlns="http://www.w3.org/2000/svg" width="57.098" height="60.041" viewBox="0 0 57.098 60.041">
  <path id="Ecommerce" d="M1030.04,433.4l-3.012-9.275h-9.758l-7.891-5.734-7.891,5.734h-9.751l-3.013,9.275-7.891,5.734,3.012,9.275-3.012,9.281,7.891,5.734,3.013,9.275h9.751l7.891,5.734,7.891-5.734h9.758l3.012-9.275,7.891-5.734-3.012-9.281,3.012-9.275Zm-4.7,11.3-13.683,13.689-1.535,1.535-.587.582a1.99,1.99,0,0,1-2.809,0l-11.8-11.8a1.99,1.99,0,0,1,0-2.809l2.117-2.122a2,2,0,0,1,2.815,0l8.4,8.409,12.282-12.282a2,2,0,0,1,2.815,0l1.989,1.995A1.991,1.991,0,0,1,1025.342,444.7Z" transform="translate(-980.833 -418.391)" fill="#fe9100"/>
</svg>
