<svg xmlns="http://www.w3.org/2000/svg" width="89.887" height="72.331" viewBox="0 0 89.887 72.331">
  <g id="Group_18" data-name="Group 18" transform="translate(2 2)">
    <path id="Path_29" data-name="Path 29" d="M209.286,331.342H134.6L129,318.281V294h85.887v24.281Z" transform="translate(-129 -294)" fill="none" stroke="#fff" stroke-miterlimit="10" stroke-width="4"/>
    <path id="Path_30" data-name="Path 30" d="M135,315.468V308h63.482v7.468" transform="translate(-123.797 -281.861)" fill="none" stroke="#fff" stroke-miterlimit="10" stroke-width="4"/>
    <line id="Line_17" data-name="Line 17" x2="3.846" transform="translate(9.176 9.067)" fill="none" stroke="#fff" stroke-miterlimit="10" stroke-width="4"/>
    <path id="Path_31" data-name="Path 31" d="M142.968,341.405c8.947-11.2-9.179-10.869,1.867-22.405" transform="translate(-118.472 -272.322)" fill="none" stroke="#fff" stroke-miterlimit="10" stroke-width="4"/>
    <path id="Path_32" data-name="Path 32" d="M149.921,341.406c8.947-11.2-9.179-10.87,1.867-22.407" transform="translate(-112.443 -272.323)" fill="none" stroke="#fff" stroke-miterlimit="10" stroke-width="4"/>
    <path id="Path_33" data-name="Path 33" d="M156.875,341.4c8.945-11.2-9.181-10.868,1.867-22.405" transform="translate(-106.414 -272.323)" fill="none" stroke="#fff" stroke-miterlimit="10" stroke-width="4"/>
    <path id="Path_34" data-name="Path 34" d="M163.828,341.4c8.945-11.2-9.181-10.868,1.865-22.405" transform="translate(-100.386 -272.323)" fill="none" stroke="#fff" stroke-miterlimit="10" stroke-width="4"/>
  </g>
</svg>
