<svg xmlns="http://www.w3.org/2000/svg" width="72.616" height="72.961" viewBox="0 0 72.616 72.961"><defs><style>.a{fill:#fe9100;}.b{fill:#1c3e9e;}</style></defs><g transform="translate(-961.615 -34.83)"><path class="a" d="M983.454,34.837V34.83c-.042,0-.077.007-.113.007s-.077-.007-.112-.007v.007C961,34.795,964.183,58.492,964.183,58.492c2.052,15.2,16.48,32.05,19.046,34.94v.261l.112-.134.113.134v-.261c2.559-2.89,16.995-19.736,19.038-34.94C1002.493,58.492,1005.679,34.795,983.454,34.837Zm-.113,30.507a10.394,10.394,0,1,1,10.284-10.39A10.4,10.4,0,0,1,983.341,65.344Z" transform="translate(14.582 0)"/><path class="b" d="M1011.562,41.218c-.867,1.628-1.776,3.207-2.707,4.723,11.546,1.523,19.32,5.294,19.32,8.747,0,4.469-12.941,9.459-30.253,9.459s-30.253-4.99-30.253-9.459c0-3.454,7.775-7.225,19.321-8.747-.938-1.515-1.84-3.094-2.707-4.723-13.541,2.058-22.669,7.169-22.669,13.47,0,8.247,15.606,14.464,36.308,14.464s36.309-6.217,36.309-14.464C1034.231,48.387,1025.1,43.283,1011.562,41.218Z" transform="translate(0 38.639)"/></g></svg>