<svg xmlns="http://www.w3.org/2000/svg" width="69.103" height="49.152" viewBox="0 0 69.103 49.152">
  <g id="Group_192" data-name="Group 192" transform="translate(-705.579 -148.063)">
    <g id="Group_191" data-name="Group 191" transform="translate(705.579 148.063)">
      <path id="Path_352" data-name="Path 352" d="M762.424,170.467a14.638,14.638,0,0,1,9.3,3.323h.083V152.984a4.934,4.934,0,0,0-4.921-4.921H710.5a4.934,4.934,0,0,0-4.921,4.921V173.79h47.548A14.626,14.626,0,0,1,762.424,170.467Zm-3.3-15.689a5.517,5.517,0,1,1-5.517,5.517A5.513,5.513,0,0,1,759.126,154.779Zm-38.892,10.178h-6.266a1.455,1.455,0,0,1,0-2.911h6.266a1.455,1.455,0,0,1,0,2.911Zm4.477-5.707H713.969a1.455,1.455,0,0,1,0-2.911h10.743a1.455,1.455,0,0,1,0,2.911Z" transform="translate(-705.579 -148.063)" fill="#fe9100"/>
      <path id="Path_353" data-name="Path 353" d="M747.743,157.255a14.65,14.65,0,0,1,.558-3.97H705.579v5.593A4.934,4.934,0,0,0,710.5,163.8h38.8A14.635,14.635,0,0,1,747.743,157.255Z" transform="translate(-705.579 -120.17)" fill="#fe9100"/>
    </g>
    <path id="Path_354" data-name="Path 354" d="M724.738,152.008a12.068,12.068,0,1,0,12.068,12.068A12.068,12.068,0,0,0,724.738,152.008Zm6.3,10.064-5.714,5.714-.64.64-.247.241a.83.83,0,0,1-1.173,0l-4.927-4.927a.831.831,0,0,1,0-1.173l.888-.881a.83.83,0,0,1,1.173,0l3.507,3.507,5.124-5.124a.831.831,0,0,1,1.173,0l.836.831A.842.842,0,0,1,731.035,162.072Z" transform="translate(37.876 21.072)" fill="#0078a8"/>
  </g>
</svg>
