<svg xmlns="http://www.w3.org/2000/svg" width="58.411" height="57.055" viewBox="0 0 58.411 57.055">
  <path id="Path_350" data-name="Path 350" d="M632.334,452.067l-1.948-28.955-2.134-24.065-6.144-.024-1.248,24.089h-5.143v-8.026l-10.028,8.026-.247-8.147-10.028,8.147-.5-8.026-9.78,8.026v28.955h-5.764v4.01h58.411v-4.01Zm-35.853-5.891H591.09v-5.391h5.391Zm0-11.282H591.09V429.5h5.391Zm10.4,11.282h-5.391v-5.391h5.391Zm0-11.282h-5.391V429.5h5.391Zm10.275,11.282h-5.385v-5.391h5.385Zm0-11.282h-5.385V429.5h5.385Z" transform="translate(-579.368 -399.022)" fill="#fe9100"/>
</svg>
