<svg xmlns="http://www.w3.org/2000/svg" width="84.898" height="87.424" viewBox="0 0 84.898 87.424">
  <g id="Group_14" data-name="Group 14" transform="translate(2 2)">
    <path id="Path_23" data-name="Path 23" d="M410.8,161.337c-5.058-7.617-10.519-16.574-13.581-30.337C390.46,161.4,372,168.347,372,189.2a25.221,25.221,0,0,0,50.443,0,32.373,32.373,0,0,0-.512-5.815" transform="translate(-372 -131)" fill="none" stroke="#fff" stroke-linejoin="round" stroke-width="4"/>
    <path id="Path_24" data-name="Path 24" d="M399.18,158.694a69.519,69.519,0,0,0-5.6-9.693" transform="translate(-351.714 -114.077)" fill="none" stroke="#fff" stroke-linejoin="round" stroke-width="4"/>
    <path id="Path_25" data-name="Path 25" d="M389,188.622c0-22.311,40.742-17.137,40.742-36.862V144" transform="translate(-356.018 -118.779)" fill="none" stroke="#fff" stroke-linejoin="round" stroke-width="4"/>
    <path id="Path_26" data-name="Path 26" d="M406,151.76l7.76-7.76,7.76,7.76" transform="translate(-340.037 -118.779)" fill="none" stroke="#fff" stroke-linejoin="round" stroke-width="4"/>
    <path id="Path_27" data-name="Path 27" d="M382,181.622c0-22.311,40.742-17.137,40.742-36.862V137" transform="translate(-362.599 -125.359)" fill="none" stroke="#fff" stroke-linejoin="round" stroke-width="4"/>
    <path id="Path_28" data-name="Path 28" d="M399,144.76l7.76-7.76,7.76,7.76" transform="translate(-346.617 -125.359)" fill="none" stroke="#fff" stroke-linejoin="round" stroke-width="4"/>
  </g>
</svg>
